HIERARCHY
ROOT Hips
{
	OFFSET 0.00000 0.00000 0.00000
	CHANNELS 6 Xposition Yposition Zposition Zrotation Yrotation Xrotation 
	JOINT LHipJoint
	{
		OFFSET 0 0 0
		CHANNELS 3 Zrotation Yrotation Xrotation
		JOINT LeftUpLeg
		{
			OFFSET 1.58895 -1.83665 0.71753
			CHANNELS 3 Zrotation Yrotation Xrotation
			JOINT LeftLeg
			{
				OFFSET 2.50528 -6.88321 0.00000
				CHANNELS 3 Zrotation Yrotation Xrotation
				JOINT LeftFoot
				{
					OFFSET 2.63244 -7.23257 0.00000
					CHANNELS 3 Zrotation Yrotation Xrotation
					JOINT LeftToeBase
					{
						OFFSET 0.23691 -0.65090 1.72750
						CHANNELS 3 Zrotation Yrotation Xrotation
						End Site
						{
							OFFSET 0.00000 -0.00000 0.92561
						}
					}
				}
			}
		}
	}
	JOINT RHipJoint
	{
		OFFSET 0 0 0
		CHANNELS 3 Zrotation Yrotation Xrotation
		JOINT RightUpLeg
		{
			OFFSET -1.51435 -1.83665 0.71753
			CHANNELS 3 Zrotation Yrotation Xrotation
			JOINT RightLeg
			{
				OFFSET -2.54551 -6.99375 0.00000
				CHANNELS 3 Zrotation Yrotation Xrotation
				JOINT RightFoot
				{
					OFFSET -2.66027 -7.30903 0.00000
					CHANNELS 3 Zrotation Yrotation Xrotation
					JOINT RightToeBase
					{
						OFFSET -0.22981 -0.63138 2.03959
						CHANNELS 3 Zrotation Yrotation Xrotation
						End Site
						{
							OFFSET -0.00000 -0.00000 1.07060
						}
					}
				}
			}
		}
	}
	JOINT LowerBack
	{
		OFFSET 0 0 0
		CHANNELS 3 Zrotation Yrotation Xrotation
		JOINT Spine
		{
			OFFSET -0.02651 1.86275 -0.11152
			CHANNELS 3 Zrotation Yrotation Xrotation
			JOINT Spine1
			{
				OFFSET 0.01019 1.86224 0.04087
				CHANNELS 3 Zrotation Yrotation Xrotation
				JOINT Neck
				{
					OFFSET 0 0 0
					CHANNELS 3 Zrotation Yrotation Xrotation
					JOINT Neck1
					{
						OFFSET -0.01926 1.80512 0.08867
						CHANNELS 3 Zrotation Yrotation Xrotation
						JOINT Head
						{
							OFFSET 0.05516 1.76451 -0.38475
							CHANNELS 3 Zrotation Yrotation Xrotation
							End Site
							{
								OFFSET 0.01592 1.82587 -0.14001
							}
						}
					}
				}
				JOINT LeftShoulder
				{
					OFFSET 0 0 0
					CHANNELS 3 Zrotation Yrotation Xrotation
					JOINT LeftArm
					{
						OFFSET 3.47116 1.51376 0.14491
						CHANNELS 3 Zrotation Yrotation Xrotation
						JOINT LeftForeArm
						{
							OFFSET 4.78095 -0.00000 0.00000
							CHANNELS 3 Zrotation Yrotation Xrotation
							JOINT LeftHand
							{
								OFFSET 3.58615 -0.00000 -0.00000
								CHANNELS 3 Zrotation Yrotation Xrotation
								JOINT LeftFingerBase
								{
									OFFSET 0 0 0
									CHANNELS 3 Zrotation Yrotation Xrotation
									JOINT LeftHandIndex1
									{
										OFFSET 0.65981 -0.00000 0.00000
										CHANNELS 3 Zrotation Yrotation Xrotation
										End Site
										{
											OFFSET 0.53196 -0.00000 0.00000
										}
									}
								}
								JOINT LThumb
								{
									OFFSET 0 0 0
									CHANNELS 3 Zrotation Yrotation Xrotation
									End Site
									{
										OFFSET 0.54008 -0.00000 0.54008
									}
								}
							}
						}
					}
				}
				JOINT RightShoulder
				{
					OFFSET 0 0 0
					CHANNELS 3 Zrotation Yrotation Xrotation
					JOINT RightArm
					{
						OFFSET -3.31725 1.61216 0.35156
						CHANNELS 3 Zrotation Yrotation Xrotation
						JOINT RightForeArm
						{
							OFFSET -4.48913 -0.00000 0.00000
							CHANNELS 3 Zrotation Yrotation Xrotation
							JOINT RightHand
							{
								OFFSET -3.70510 -0.00000 0.00000
								CHANNELS 3 Zrotation Yrotation Xrotation
								JOINT RightFingerBase
								{
									OFFSET 0 0 0
									CHANNELS 3 Zrotation Yrotation Xrotation
									JOINT RightHandIndex1
									{
										OFFSET -0.44914 -0.00000 0.00000
										CHANNELS 3 Zrotation Yrotation Xrotation
										End Site
										{
											OFFSET -0.36211 -0.00000 0.00000
										}
									}
								}
								JOINT RThumb
								{
									OFFSET 0 0 0
									CHANNELS 3 Zrotation Yrotation Xrotation
									End Site
									{
										OFFSET -0.36763 -0.00000 0.36763
									}
								}
							}
						}
					}
				}
			}
		}
	}
}
MOTION
Frames: 14
Frame Time: .0083333
-0.3767 18.5741 3.8515 -1.2606 1.7719 4.7943 0.0000 0.0000 0.0000 -11.8799 -6.7670 -21.1520 2.8355 10.4239 30.3607 0.7713 0.1454 -16.6530 8.4294 -16.4262 -54.0950 0.0000 0.0000 0.0000 13.5680 4.2684 -10.2694 -0.6947 -5.3283 14.8472 -0.9279 -5.2093 -20.7995 -0.1194 2.2280 -6.1362 3.0125 -0.9892 25.9946 1.8325 -0.2666 4.8915 0.3905 -0.1809 -9.0008 -2.9603 -1.7077 -22.6553 3.1451 -1.8275 6.7535 1.2823 -0.7127 5.7000 0.0000 0.0000 0.0000 -79.8481 -54.9635 60.9518 22.4531 -33.4853 -6.8342 -0.0000 0.0000 -3.6126 15.9431 -31.8129 -8.5638 -7.1250 0.0000 -0.0000 -8.8907 -2.4989 9.3817 0.0000 0.0000 0.0000 73.7348 52.2148 45.3649 -22.5610 33.6053 -6.8938 0.0000 0.0000 26.1878 -43.0277 -31.4174 25.9458 7.1250 -0.0000 -0.0000 -17.5410 -69.1223 10.2517
-0.3743 18.5212 3.7552 -1.1486 1.7319 5.3074 0.0000 0.0000 0.0000 -11.8111 -6.9064 -22.8111 3.0640 10.7979 31.6013 0.7800 -0.2264 -16.6174 8.4280 -16.4252 -54.0900 0.0000 0.0000 0.0000 13.2372 4.5603 -12.6455 -0.9613 -6.2429 17.4908 -0.9986 -4.2097 -20.8425 -0.1466 2.4674 -6.7993 2.7334 -0.9832 26.4504 1.9495 -0.3055 5.0206 0.6986 -0.1901 -9.0876 -2.8301 -1.5979 -22.7664 2.8010 -1.6674 6.5188 1.1680 -0.6597 5.6309 -0.0000 0.0000 0.0000 -83.2131 -56.1829 59.7896 21.1867 -32.0457 -6.1487 -0.0000 0.0000 -3.7327 24.8503 -35.1522 -14.9304 -7.1250 0.0000 -0.0000 -4.4531 -7.7308 5.0259 -0.0000 0.0000 0.0000 76.8447 54.0358 44.7247 -21.2599 32.1305 -6.1876 0.0000 0.0000 27.5559 -44.0878 -32.0966 27.2345 7.1250 -0.0000 -0.0000 -19.5619 -70.2193 11.9397
-0.3737 18.4670 3.6688 -0.9025 1.6122 5.7208 0.0000 0.0000 0.0000 -11.9066 -7.0362 -24.2463 3.2840 11.1412 32.7576 0.7917 -0.5089 -16.6514 8.4344 -16.4296 -54.1126 0.0000 0.0000 0.0000 12.7668 4.9075 -14.7091 -1.2359 -7.0497 19.8627 -1.0572 -3.3346 -20.8930 -0.1725 2.6755 -7.3765 2.3709 -0.9534 26.9153 1.9484 -0.3514 5.1453 0.9267 -0.2019 -9.1824 -2.8122 -1.5378 -23.0223 2.8353 -1.5885 6.4120 1.1845 -0.6162 5.6329 0.0000 -0.0000 0.0000 -87.6867 -56.9336 58.0995 20.1312 -30.8001 -5.5984 -0.0000 0.0000 -1.5260 32.9195 -37.6610 -21.5818 -7.1250 0.0000 -0.0000 -0.7581 -12.6133 0.9054 0.0000 -0.0000 0.0000 80.7299 55.2496 44.4155 -20.3458 31.0568 -5.7087 0.0000 0.0000 28.9048 -44.6687 -32.1877 27.7699 7.1250 -0.0000 -0.0000 -20.6957 -70.5044 12.7808
-0.3728 18.4155 3.5951 -0.5733 1.4581 5.9725 0.0000 0.0000 0.0000 -12.1398 -7.0155 -25.4181 3.4905 11.4497 33.8120 0.8028 -0.8156 -16.6750 8.4646 -16.4506 -54.2194 0.0000 0.0000 0.0000 12.2190 5.2818 -16.3688 -1.5069 -7.7529 21.9662 -1.1092 -2.5959 -20.9867 -0.1959 2.8505 -7.8629 2.0179 -0.9420 27.3477 1.8257 -0.4369 5.3050 1.0266 -0.2337 -9.2196 -2.7653 -1.4653 -23.3013 3.0503 -1.5248 6.3412 1.2534 -0.5637 5.6522 0.0000 0.0000 0.0000 -92.5350 -57.2295 56.1005 19.5219 -30.0621 -5.2898 -0.0000 -0.0000 1.1782 38.2901 -38.9685 -26.4041 -7.1250 0.0000 -0.0000 1.5872 -15.8675 -1.9614 0.0000 0.0000 0.0000 84.9466 55.6279 44.5226 -20.0574 30.7114 -5.5606 0.0000 0.0000 30.0480 -45.0190 -31.7101 27.7430 7.1250 -0.0000 -0.0000 -21.2762 -70.0787 12.9505
-0.3690 18.3670 3.5348 -0.2684 1.3556 6.0790 0.0000 0.0000 0.0000 -12.3924 -6.9254 -26.3528 3.6850 11.7290 34.7799 0.8154 -1.1879 -16.7021 8.4899 -16.4680 -54.3087 0.0000 0.0000 0.0000 11.7067 5.5889 -17.6333 -1.7571 -8.3407 23.7536 -1.1573 -1.9824 -21.1268 -0.2158 2.9903 -8.2519 1.8998 -0.9763 27.7096 1.6063 -0.5296 5.4663 0.8845 -0.2760 -9.2202 -2.6959 -1.4293 -23.4924 3.2875 -1.5229 6.3349 1.3194 -0.5391 5.6811 -0.0000 0.0000 0.0000 -96.7344 -56.9106 54.6080 19.6208 -30.1828 -5.3394 -0.0000 -0.0000 2.3291 39.9147 -39.2352 -27.8848 -7.1250 0.0000 -0.0000 2.3078 -16.7817 -2.8777 -0.0000 0.0000 0.0000 88.3867 55.0839 44.8877 -20.4808 31.2173 -5.7785 0.0000 0.0000 30.6598 -45.3475 -31.2320 27.6919 7.1250 -0.0000 -0.0000 -21.7936 -69.6434 13.0661
-0.3631 18.3209 3.4874 -0.0270 1.3634 6.0378 0.0000 0.0000 0.0000 -12.6015 -6.9261 -27.0079 3.8645 11.9779 35.6540 0.8323 -1.5457 -16.7847 8.4882 -16.4668 -54.3027 0.0000 0.0000 0.0000 11.2909 5.7508 -18.5377 -1.9783 -8.8207 25.2359 -1.2015 -1.4736 -21.2910 -0.2271 3.0673 -8.4662 1.9553 -1.0540 28.0256 1.3909 -0.6291 5.6097 0.6489 -0.3255 -9.2190 -2.6094 -1.4131 -23.6011 3.4420 -1.5479 6.4803 1.3531 -0.5341 5.7465 -0.0000 0.0000 0.0000 -99.8006 -55.9040 53.5845 20.4089 -31.1319 -5.7413 -0.0000 -0.0000 2.2804 38.6772 -39.0561 -26.7654 -7.1250 0.0000 -0.0000 1.7524 -16.1074 -2.1707 -0.0000 0.0000 0.0000 90.0898 53.8538 45.7647 -21.5017 32.4093 -6.3167 0.0000 0.0000 30.0914 -45.7084 -31.0522 27.8670 7.1250 -0.0000 -0.0000 -22.4363 -69.5534 13.4201
-0.3569 18.2784 3.4486 -0.1398 1.3739 5.9069 0.0000 0.0000 0.0000 -12.4296 -6.8766 -27.4689 4.0101 12.1738 36.3496 0.8441 -1.8261 -16.8382 8.4825 -16.4629 -54.2826 0.0000 0.0000 0.0000 11.3027 5.9761 -19.1799 -2.1772 -9.2259 26.5044 -1.2472 -1.1096 -21.5329 -0.2492 3.2119 -8.8692 2.3234 -1.1541 28.3994 1.3142 -0.6475 5.6508 0.3626 -0.3444 -9.3633 -2.4668 -1.3710 -23.5761 3.3938 -1.5352 6.7470 1.3167 -0.5268 5.8272 0.0000 -0.0000 0.0000 -99.1800 -54.3069 54.3607 22.3597 -33.3812 -6.7827 -0.0000 0.0000 -1.7647 36.7602 -38.3517 -24.8683 -7.1250 0.0000 -0.0000 1.0064 -14.6571 -1.2284 0.0000 -0.0000 0.0000 89.9437 52.2572 47.4223 -22.8452 33.9191 -7.0517 0.0000 0.0000 28.1125 -46.4491 -31.3326 28.6785 7.1250 -0.0000 -0.0000 -23.9735 -70.1013 14.6644
-0.3511 18.2419 3.4245 -0.2905 1.4257 5.5951 0.0000 0.0000 0.0000 -12.2566 -6.7816 -27.6329 4.1417 12.3466 36.9694 0.8620 -2.0966 -16.9607 8.4845 -16.4643 -54.2897 0.0000 0.0000 0.0000 11.4082 6.0776 -19.4413 -2.3421 -9.5450 27.5154 -1.2933 -0.7850 -21.7947 -0.2777 3.3893 -9.3645 2.6571 -1.2516 28.7670 1.3356 -0.6582 5.6636 0.2037 -0.3584 -9.5345 -2.3987 -1.3289 -23.4396 3.1986 -1.4852 7.1322 1.2487 -0.5170 5.9274 -0.0000 -0.0000 0.0000 -96.8043 -52.2632 55.5876 25.0478 -36.2528 -8.3182 -0.0000 0.0000 -6.2528 35.7741 -38.0421 -23.9424 -7.1250 0.0000 -0.0000 0.5967 -13.9808 -0.7232 -0.0000 -0.0000 0.0000 88.5065 50.4675 49.6498 -24.4957 35.6841 -7.9939 0.0000 0.0000 25.1588 -47.5865 -32.0675 30.1632 7.1250 -0.0000 -0.0000 -26.6368 -71.2767 17.0467
-0.3468 18.2142 3.4297 0.6035 1.7962 4.8525 0.0000 0.0000 0.0000 -13.3795 -6.7231 -27.0490 4.2364 12.4685 37.4102 0.8843 -2.4965 -17.1031 8.5275 -16.4938 -54.4411 0.0000 0.0000 0.0000 10.4393 5.3476 -19.1139 -2.4742 -9.7908 28.3019 -1.3313 -0.2214 -21.9051 -0.3052 3.5517 -9.8187 1.8814 -1.3092 29.0062 1.2372 -0.9633 5.8423 0.6515 -0.4787 -9.4450 -2.4601 -1.2834 -23.2945 2.9944 -1.3934 7.6939 1.2036 -0.4915 6.0835 0.0000 -0.0000 0.0000 -94.0242 -49.9269 56.4785 28.2171 -39.3154 -10.2610 -0.0000 0.0000 -9.3495 36.0460 -38.2705 -24.2641 -7.1250 0.0000 -0.0000 0.6694 -14.3136 -0.8142 0.0000 -0.0000 0.0000 86.4853 48.3558 51.9488 -26.7792 37.9678 -9.3629 0.0000 0.0000 21.7966 -48.5651 -32.6694 31.4466 7.1250 -0.0000 -0.0000 -29.1522 -72.2398 19.3354
-0.3419 18.1872 3.4282 0.3810 1.5619 4.4375 0.0000 0.0000 0.0000 -13.1779 -6.2686 -26.8943 4.3022 12.5520 37.7138 0.9003 -2.7149 -17.2211 8.5678 -16.5214 -54.5832 0.0000 0.0000 0.0000 10.6764 5.6508 -18.9228 -2.5683 -9.9611 28.8510 -1.3662 -0.0932 -22.1465 -0.3449 3.7735 -10.4402 2.2141 -1.2749 29.1651 1.2376 -0.8164 5.7877 0.4108 -0.4199 -9.5893 -2.4661 -1.3409 -23.5720 2.9120 -1.4707 8.6758 1.1698 -0.5313 6.4478 -0.0000 -0.0000 0.0000 -90.8946 -47.2934 57.5499 31.9522 -42.5090 -12.7085 -0.0000 0.0000 -11.8276 37.1548 -38.7607 -25.3812 -7.1250 0.0000 -0.0000 1.0838 -15.2240 -1.3306 -0.0000 -0.0000 0.0000 84.6909 45.7235 53.5393 -29.7761 40.7007 -11.2633 0.0000 0.0000 18.7740 -49.1708 -32.9029 32.1565 7.1250 -0.0000 -0.0000 -30.7344 -72.6747 20.7210
-0.3399 18.1699 3.4557 0.3037 1.7237 3.9102 0.0000 0.0000 0.0000 -13.1832 -5.9151 -26.4204 4.3316 12.5891 37.8491 0.9074 -3.0676 -17.2291 8.6048 -16.5466 -54.7132 0.0000 0.0000 0.0000 10.8235 5.4570 -18.4087 -2.6263 -10.0640 29.1841 -1.4025 0.0064 -22.4058 -0.4031 4.0760 -11.2906 2.3353 -1.3635 28.8033 1.3107 -0.9006 5.9246 0.4444 -0.4597 -9.2553 -2.3672 -1.3294 -23.6689 2.7069 -1.4669 9.4001 1.0882 -0.5422 6.6978 -0.0000 0.0000 0.0000 -87.8131 -44.5396 58.1656 36.5037 -45.8565 -15.8829 -0.0000 0.0000 -13.7032 38.4324 -39.2777 -26.6729 -7.1250 0.0000 -0.0000 1.5622 -16.2397 -1.9373 -0.0000 0.0000 0.0000 83.3223 43.0299 54.8240 -33.3456 43.5940 -13.6598 0.0000 0.0000 16.4651 -49.7650 -33.1821 32.8965 7.1250 -0.0000 -0.0000 -32.4020 -73.1500 22.2289
-0.3378 18.1665 3.5209 0.7474 2.4654 3.1553 0.0000 0.0000 0.0000 -13.8492 -5.9260 -25.3839 4.3380 12.5971 37.8784 0.9203 -3.4889 -17.2915 8.6400 -16.5704 -54.8364 0.0000 0.0000 0.0000 10.4444 4.2808 -17.4691 -2.6371 -10.0831 29.2461 -1.4347 0.3602 -22.5468 -0.4518 4.3121 -11.9564 2.3184 -1.6105 28.3564 1.1776 -1.2498 6.0342 0.4169 -0.6209 -8.9156 -2.2420 -1.4178 -23.9564 2.5636 -1.6138 10.3598 1.0034 -0.6167 7.0612 0.0000 -0.0000 0.0000 -85.0118 -41.1279 58.6470 42.3924 -49.4251 -20.2381 -0.0000 0.0000 -14.9360 39.3278 -39.5305 -27.5410 -7.1250 0.0000 -0.0000 1.9243 -16.8497 -2.4006 0.0000 -0.0000 0.0000 82.3823 39.8373 55.4482 -37.4570 46.4890 -16.5707 0.0000 0.0000 15.0292 -50.4338 -33.6825 33.8691 7.1250 -0.0000 -0.0000 -34.5603 -73.8762 24.3143
-0.3369 18.1638 3.5722 0.6631 2.5924 2.5577 0.0000 0.0000 0.0000 -13.8585 -5.8076 -24.4954 4.3168 12.5704 37.7810 0.9418 -3.5574 -17.4903 8.6475 -16.5754 -54.8627 0.0000 0.0000 0.0000 10.6273 3.9595 -16.5615 -2.6106 -10.0363 29.0944 -1.4658 0.5253 -22.7400 -0.4462 4.2855 -11.8814 2.5508 -1.6566 27.9511 1.1363 -1.2615 5.9982 0.2325 -0.6318 -8.7607 -2.1744 -1.5257 -24.1131 2.5521 -1.7934 11.3034 0.9663 -0.6965 7.4041 -0.0000 0.0000 0.0000 -82.5563 -37.5120 58.9154 49.1906 -52.6638 -25.5292 -0.0000 0.0000 -15.7418 39.5160 -39.4068 -27.6368 -7.1250 0.0000 -0.0000 2.0564 -16.7979 -2.5644 -0.0000 0.0000 0.0000 81.7404 36.4284 55.8552 -42.1292 49.2820 -20.0384 0.0000 0.0000 14.1642 -51.0629 -34.2913 34.8883 7.1250 -0.0000 -0.0000 -36.9042 -74.6906 26.6751
-0.3398 18.1663 3.6301 0.5709 2.5999 1.8895 0.0000 0.0000 0.0000 -13.8542 -5.5645 -23.4369 4.2675 12.5081 37.5538 0.9659 -3.6752 -17.7047 8.6133 -16.5523 -54.7429 0.0000 0.0000 0.0000 10.8497 3.7496 -15.4339 -2.5523 -9.9324 28.7582 -1.4938 0.6217 -22.9296 -0.4313 4.2144 -11.6807 2.6709 -1.6335 27.5086 1.0891 -1.2200 5.9250 0.0883 -0.6158 -8.6256 -2.1835 -1.6376 -23.9946 2.7507 -1.9975 12.2034 1.0087 -0.7708 7.6950 -0.0000 0.0000 0.0000 -80.4027 -33.8502 59.1089 56.5060 -55.3046 -31.4506 -0.0000 0.0000 -16.3577 39.2354 -39.0288 -27.2134 -7.1250 0.0000 -0.0000 2.0377 -16.2982 -2.5289 -0.0000 0.0000 0.0000 81.4397 32.5697 55.8901 -47.6903 52.0204 -24.3414 0.0000 0.0000 13.9475 -51.2355 -34.7473 35.3666 7.1250 -0.0000 -0.0000 -37.9237 -75.2142 27.8540
